<?xml version="1.0" encoding="utf-8"?>
<!-- Generator: Adobe Illustrator 24.2.3, SVG Export Plug-In . SVG Version: 6.00 Build 0)  -->
<svg version="1.1" id="레이어_1" xmlns="http://www.w3.org/2000/svg" xmlns:xlink="http://www.w3.org/1999/xlink" x="0px"
	 y="0px" viewBox="0 0 100 125" style="enable-background:new 0 0 100 125;" xml:space="preserve">
<g>
	<g>
		<path d="M78.9,63.2L71,55.3l5.9-2.8c0.4-0.2,0.6-0.6,0.6-1.1c0-0.4-0.3-0.8-0.7-1l-9.6-3.3V27.9h2.4c0.6,0,1.1-0.5,1.1-1.1
			c0-0.6-0.5-1.1-1.1-1.1h-2.4V15.3c0-0.6-0.5-1.1-1.1-1.1h-46c-0.6,0-1.1,0.5-1.1,1.1v10.4h-2.5c-0.6,0-1.1,0.5-1.1,1.1
			c0,0.6,0.5,1.1,1.1,1.1H19v25.9c0,0.6,0.5,1.1,1.1,1.1h37L61,66.1c0.1,0.4,0.5,0.7,1,0.7c0.4,0,0.9-0.2,1.1-0.6l2.8-5.9l7.9,7.9
			c0.2,0.2,0.5,0.3,0.8,0.3c0.1,0,0.1,0,0.2,0c0,0,0.1,0,0.1,0c0,0,0.1,0,0.1,0c0,0,0,0,0,0c0.1-0.1,0.3-0.1,0.4-0.2l3.6-3.6
			c0.2-0.2,0.3-0.5,0.3-0.8C79.2,63.7,79.1,63.4,78.9,63.2z M21.2,16.4H65v22.3L53.7,27.4c-0.4-0.4-1.1-0.4-1.6,0L36.9,42.7
			l-5.1-5.1c-0.4-0.4-1.1-0.4-1.6,0l-9,9L21.2,16.4L21.2,16.4z M21.2,52.7v-3l9.8-9.7l5.1,5.1c0.4,0.4,1.1,0.4,1.5,0l15.3-15.3
			L65,41.8v4.5l-10-3.4c-0.4-0.1-0.9,0-1.2,0.3c0,0,0,0,0,0c-0.3,0.3-0.4,0.7-0.3,1.1l2.9,8.3H21.2z M74.6,66l-8.2-8.2
			c-0.3-0.3-0.6-0.4-1-0.3c-0.4,0.1-0.6,0.3-0.8,0.6l-2.4,4.9L59,53.5c0,0,0-0.1,0-0.1l-2.6-7.7l17.2,5.9L68.7,54
			c-0.3,0.2-0.5,0.5-0.6,0.8c-0.1,0.4,0.1,0.7,0.3,1l8.2,8.2L74.6,66z"/>
		<path d="M75.3,68.3c-0.1,0.1-0.2,0.2-0.4,0.2C75.1,68.5,75.2,68.4,75.3,68.3z"/>
	</g>
</g>
<g>
	<g>
		<path d="M83.6,27.9h-7c-0.6,0-1.1-0.5-1.1-1.1s0.5-1.1,1.1-1.1h7c0.6,0,1.1,0.5,1.1,1.1S84.2,27.9,83.6,27.9z"/>
	</g>
	<g>
		<path d="M93.9,31.2c-0.6,0-1.1-0.5-1.1-1.1v-2.2h-2.2c-0.6,0-1.1-0.5-1.1-1.1s0.5-1.1,1.1-1.1h3.3c0.6,0,1.1,0.5,1.1,1.1v3.3
			C95,30.7,94.5,31.2,93.9,31.2z"/>
	</g>
	<g>
		<path d="M93.9,75.2c-0.6,0-1.1-0.5-1.1-1.1v-7.3c0-0.6,0.5-1.1,1.1-1.1s1.1,0.5,1.1,1.1v7.3C95,74.7,94.5,75.2,93.9,75.2z
			 M93.9,60.5c-0.6,0-1.1-0.5-1.1-1.1v-7.3c0-0.6,0.5-1.1,1.1-1.1s1.1,0.5,1.1,1.1v7.3C95,60,94.5,60.5,93.9,60.5z M93.9,45.9
			c-0.6,0-1.1-0.5-1.1-1.1v-7.3c0-0.6,0.5-1.1,1.1-1.1s1.1,0.5,1.1,1.1v7.3C95,45.4,94.5,45.9,93.9,45.9z"/>
	</g>
	<g>
		<path d="M93.9,85.8h-3.3c-0.6,0-1.1-0.5-1.1-1.1s0.5-1.1,1.1-1.1h2.2v-2.2c0-0.6,0.5-1.1,1.1-1.1s1.1,0.5,1.1,1.1v3.3
			C95,85.3,94.5,85.8,93.9,85.8z"/>
	</g>
	<g>
		<path d="M84.4,85.8h-6.2c-0.6,0-1.1-0.5-1.1-1.1s0.5-1.1,1.1-1.1h6.2c0.6,0,1.1,0.5,1.1,1.1S85,85.8,84.4,85.8z M71.9,85.8h-6.2
			c-0.6,0-1.1-0.5-1.1-1.1s0.5-1.1,1.1-1.1h6.2c0.6,0,1.1,0.5,1.1,1.1S72.5,85.8,71.9,85.8z M59.4,85.8h-6.2c-0.6,0-1.1-0.5-1.1-1.1
			s0.5-1.1,1.1-1.1h6.2c0.6,0,1.1,0.5,1.1,1.1C60.5,85.3,60,85.8,59.4,85.8z M46.9,85.8h-6.2c-0.6,0-1.1-0.5-1.1-1.1
			s0.5-1.1,1.1-1.1h6.2c0.6,0,1.1,0.5,1.1,1.1S47.5,85.8,46.9,85.8z M34.4,85.8h-6.2c-0.6,0-1.1-0.5-1.1-1.1s0.5-1.1,1.1-1.1h6.2
			c0.6,0,1.1,0.5,1.1,1.1S35,85.8,34.4,85.8z M21.9,85.8h-6.2c-0.6,0-1.1-0.5-1.1-1.1s0.5-1.1,1.1-1.1h6.2c0.6,0,1.1,0.5,1.1,1.1
			C23,85.3,22.5,85.8,21.9,85.8z"/>
	</g>
	<g>
		<path d="M9.4,85.8H6.1c-0.6,0-1.1-0.5-1.1-1.1v-3.3c0-0.6,0.5-1.1,1.1-1.1s1.1,0.5,1.1,1.1v2.2h2.2c0.6,0,1.1,0.5,1.1,1.1
			S10,85.8,9.4,85.8z"/>
	</g>
	<g>
		<path d="M6.1,75.2c-0.6,0-1.1-0.5-1.1-1.1v-7.3c0-0.6,0.5-1.1,1.1-1.1s1.1,0.5,1.1,1.1v7.3C7.2,74.7,6.7,75.2,6.1,75.2z M6.1,60.5
			C5.5,60.5,5,60,5,59.4v-7.3C5,51.5,5.5,51,6.1,51s1.1,0.5,1.1,1.1v7.3C7.2,60,6.7,60.5,6.1,60.5z M6.1,45.9
			c-0.6,0-1.1-0.5-1.1-1.1v-7.3c0-0.6,0.5-1.1,1.1-1.1s1.1,0.5,1.1,1.1v7.3C7.2,45.4,6.7,45.9,6.1,45.9z"/>
	</g>
	<g>
		<path d="M6.1,31.2c-0.6,0-1.1-0.5-1.1-1.1v-3.3c0-0.6,0.5-1.1,1.1-1.1h3.3c0.6,0,1.1,0.5,1.1,1.1s-0.5,1.1-1.1,1.1H7.2v2.2
			C7.2,30.7,6.7,31.2,6.1,31.2z"/>
	</g>
</g>
<g>
	<g>
		<path d="M33.6,32.9c-3,0-5.4-2.4-5.4-5.4c0-3,2.4-5.4,5.4-5.4s5.4,2.4,5.4,5.4S36.6,32.9,33.6,32.9z M33.6,24.2
			c-1.8,0-3.2,1.5-3.2,3.2c0,1.8,1.5,3.2,3.2,3.2c1.8,0,3.2-1.5,3.2-3.2S35.4,24.2,33.6,24.2z"/>
	</g>
</g>
</svg>
