<?xml version="1.0" encoding="utf-8"?>
<!-- Generator: Adobe Illustrator 24.2.3, SVG Export Plug-In . SVG Version: 6.00 Build 0)  -->
<svg version="1.1" id="레이어_1" xmlns="http://www.w3.org/2000/svg" xmlns:xlink="http://www.w3.org/1999/xlink" x="0px"
	 y="0px" viewBox="0 0 283.5 283.5" style="enable-background:new 0 0 283.5 283.5;" xml:space="preserve">
<style type="text/css">
	.st0{fill-rule:evenodd;clip-rule:evenodd;fill:#CDCAC8;}
	.st1{fill-rule:evenodd;clip-rule:evenodd;fill:#040000;}
</style>
<circle class="st0" cx="141.8" cy="141.8" r="116.9"/>
<g>
	<path class="st1" d="M87.6,120.6c12.6,0,22.7-10.2,22.7-22.7s-10.1-22.8-22.7-22.8S64.9,85.3,64.9,97.8S75.1,120.6,87.6,120.6z"/>
	<path class="st1" d="M107.4,118.1c-5.1,4.8-12.1,7.9-19.7,7.9s-14.6-3-19.7-7.9l-2.6-0.5c-0.9-0.1-1.7-0.1-2.5,0
		c-0.7,0.1-1.5,0.4-2.3,0.7c-0.8,0.3-1.8,0.7-3,1.3c-1.2,0.7-2.6,1.8-3.9,3.6c-1.3,1.8-2.7,4.2-3.9,7.2c-1.2,3-2.2,6.4-2.8,9.7
		c-0.6,3.4-0.7,6.5-0.7,8.9c-0.1,2.5-0.1,4.1,0.1,5.7c0.2,1.6,0.7,3.1,1.8,4.7c1,1.6,2.8,3.1,4.7,4.2c1.9,1.2,4.2,2,7.3,2.5
		c3.1,0.4,7,0.4,11.7,0.4h13.7h4.2c0.7-2.5,1.9-5.1,2.8-7.4c1.5-3.7,3.9-6.6,5.5-8.8c1.6-2.2,3.4-3.5,4.9-4.4
		c1.5-0.9,2.6-1.3,3.7-1.6c1-0.4,1.9-0.7,2.8-0.8c1-0.1,1.9-0.1,3.1,0l3.2,0.7c-4.2-4.8-6.6-11.2-6.6-18.1c0-3.1,0.5-6,1.4-8.8
		L107.4,118.1z"/>
	<path class="st1" d="M141.7,95.9c-15.4,0-28,12.5-28,28s12.5,28,28,28s28-12.5,28-28C169.7,108.5,157.2,95.9,141.7,95.9z"/>
	<path class="st1" d="M141.7,158.5c-9.5,0-18-3.7-24.3-9.7l-3.2-0.7c-1-0.1-2.1-0.1-3.1,0c-1,0.1-1.8,0.4-2.8,0.8
		c-1,0.4-2.2,0.8-3.7,1.6c-1.5,0.9-3.2,2.2-4.9,4.4c-1.7,2.2-3.3,5.2-4.8,8.9c-1.5,3.7-2.8,7.9-3.5,11.9c-0.7,4.1-0.9,8-1,11
		c-0.1,3-0.1,5.1,0.2,7c0.3,1.9,0.9,3.9,2.2,5.7c1.3,1.9,3.4,3.8,5.7,5.2c2.4,1.5,5.1,2.5,8.9,3c3.8,0.5,8.6,0.5,14.5,0.5H139h2.6
		h2.6h16.9c5.8,0,10.7,0,14.5-0.5c3.8-0.5,6.6-1.6,8.9-3c2.4-1.5,4.5-3.4,5.7-5.2c1.3-1.9,1.9-3.8,2.2-5.7c0.3-1.9,0.3-4,0.2-7
		c-0.1-3-0.2-6.9-1-11c-0.7-4.1-2-8.3-3.5-11.9c-1.5-3.7-3.1-6.7-4.8-8.9c-1.6-2.2-3.4-3.5-4.9-4.4c-1.5-0.9-2.6-1.3-3.7-1.6
		c-1-0.4-1.9-0.7-2.8-0.8c-1-0.1-1.9-0.1-3.1,0l-3.2,0.7C159.7,154.8,151.2,158.5,141.7,158.5z"/>
	<path class="st1" d="M180.6,145.9c1.5,0.9,3.2,2.2,4.9,4.4c1.7,2.2,4,5.1,5.5,8.8c0.9,2.2,2.2,4.8,2.8,7.4h4.2h13.7
		c4.8,0,8.6,0,11.7-0.4s5.4-1.3,7.3-2.5c1.9-1.2,3.7-2.8,4.7-4.2c1-1.6,1.6-3.1,1.8-4.7c0.2-1.6,0.2-3.3,0.1-5.7
		c-0.1-2.5-0.1-5.7-0.7-8.9c-0.6-3.4-1.6-6.8-2.8-9.7c-1.2-3-2.5-5.4-3.9-7.2c-1.3-1.8-2.8-2.8-3.9-3.6c-1.2-0.7-2.2-1-3-1.3
		s-1.6-0.5-2.3-0.7c-0.7-0.1-1.6-0.1-2.5,0l-2.6,0.5c-5.1,4.8-12.1,7.9-19.7,7.9c-7.7,0-14.6-3-19.7-7.9l-3-0.8
		c0.9,2.8,1.4,5.7,1.4,8.8c0,6.9-2.5,13.3-6.6,18.1l3.2-0.7c1-0.1,2.1-0.1,3.1,0c1,0.1,1.8,0.4,2.8,0.8
		C177.9,144.7,179.1,145,180.6,145.9z"/>
	<path class="st1" d="M173.1,97.9c0,12.6,10.2,22.7,22.7,22.7c12.6,0,22.7-10.2,22.7-22.7s-10.2-22.7-22.7-22.7
		C183.3,75.1,173.1,85.3,173.1,97.9z"/>
</g>
</svg>
